<?xml version="1.0" encoding="utf-8"?>
<!-- Generator: Adobe Illustrator 16.0.0, SVG Export Plug-In . SVG Version: 6.00 Build 0)  -->
<!DOCTYPE svg PUBLIC "-//W3C//DTD SVG 1.1//EN" "http://www.w3.org/Graphics/SVG/1.1/DTD/svg11.dtd">
<svg version="1.1" xmlns="http://www.w3.org/2000/svg" xmlns:xlink="http://www.w3.org/1999/xlink" x="0px" y="0px"
	 width="354.07px" height="272.72px" viewBox="0 0 354.07 272.72" enable-background="new 0 0 354.07 272.72" xml:space="preserve">
<g id="Layer_1">
</g>
<g id="Layer_2">
	<polygon stroke="#39B54A" stroke-width="10" stroke-miterlimit="10" points="277.035,5 77.035,5 7.035,65 177.035,265 347.035,65 	
		"/>
	<path fill="#39B54A" d="M163.691,21.211c0,0-134.497,0.968-104.126,68.715c30.37,67.747,104.126,50.326,104.126,50.326v-31.938
		c0,0-73.756,7.815-68.333-26.579s59.656-43.104,68.333-37.297C172.369,50.246,163.691,21.211,163.691,21.211z"/>
	<path fill="#39B54A" d="M233.292,21.211c-29.682,0-53.744,26.939-53.744,60.169c0,33.231,24.062,60.169,53.744,60.169
		c29.682,0,53.744-26.938,53.744-60.169C287.035,48.15,262.973,21.211,233.292,21.211z M234.985,120.921
		c-19.92,0-36.069-18.803-36.069-41.996c0-23.194,16.149-41.996,36.069-41.996c19.922,0,36.072,18.802,36.072,41.996
		C271.058,102.118,254.907,120.921,234.985,120.921z"/>
</g>
</svg>
